<svg width="48" height="44" viewBox="0 0 48 44" fill="none" xmlns="http://www.w3.org/2000/svg">
<g clip-path="url(#clip0)">
<rect width="48" height="43.3548" fill="white"/>
<mask id="mask0" mask-type="alpha" maskUnits="userSpaceOnUse" x="0" y="-1" width="48" height="43">
<path d="M47.226 14.6159V14.9339L24.238 41.6475L23.921 41.8065L23.7624 41.6475L0.774414 14.9339V14.6159L5.53055 7.7785H5.68909L10.7623 0.941095H10.9208L23.921 -0.48999H24.0795L37.0796 0.941095H37.2381L47.226 14.6159Z" fill="#3A7BD5"/>
</mask>
<g mask="url(#mask0)">
<path d="M14.0915 23.8384H13.7744V41.8065H21.3842V22.5664L18.372 19.2272L13.7744 23.6794V23.8384H14.0915L14.4086 23.9975L18.372 20.0222L20.7501 22.8844V41.1705H14.4086V23.8384H14.0915L14.4086 23.9975L14.0915 23.8384Z" fill="#3A7BD5"/>
<path d="M21.0672 7.93749H21.3842V-2.55713H13.7744V4.28028L19.0062 10.3226L21.3842 7.93749H21.0672L20.7501 7.61947L19.1647 9.36858L14.4086 3.96226V-1.92109H20.7501V7.93749H21.0672L20.7501 7.61947L21.0672 7.93749Z" fill="#3A7BD5"/>
<path d="M21.0671 17.001H20.75V22.8844L31.372 35.2871L37.0794 30.3578L23.2866 14.2979L20.75 16.842V17.001H21.0671L21.2256 17.16L23.2866 15.2519L36.1282 30.3578L31.372 34.333L21.3842 22.5663V17.001H21.0671L21.2256 17.16L21.0671 17.001Z" fill="#3A7BD5"/>
<path d="M18.3721 19.5451L18.055 19.8631L21.3843 23.5204V16.2059L17.8965 19.5451L18.055 19.8631L18.3721 19.5451L18.5306 19.8631L20.7502 17.796V21.9303L18.5306 19.3861L18.3721 19.5451L18.5306 19.8631L18.3721 19.5451Z" fill="#3A7BD5"/>
<path d="M19.0062 9.84556L19.3232 9.68655L13.7744 3.32617V14.7748L14.0915 15.0929L14.25 15.4109L19.4818 9.84556L19.3232 9.68655L19.0062 9.84556L18.8476 9.68655L14.0915 14.6158L14.25 14.9339L14.5671 14.6158H14.4086V5.07528L18.8476 10.1636L19.0062 9.84556L18.8476 9.68655L19.0062 9.84556Z" fill="#3A7BD5"/>
<path d="M23.2866 14.7749L23.4451 14.9339L38.9819 -0.33101L33.433 -5.41931L20.75 7.77847V12.2307L23.2866 15.2519L23.4451 14.9339L23.2866 14.7749L23.4451 14.6159L21.3842 12.0717V7.93748L33.433 -4.46525L38.0306 -0.33101L22.9695 14.4569L23.2866 14.7749L23.4451 14.6159L23.2866 14.7749Z" fill="#3A7BD5"/>
<path d="M14.25 14.9338L14.0915 14.6158L13.933 14.7748L13.7744 14.9338V24.4744L18.8476 19.7041L14.25 14.4568L14.0915 14.6158L14.25 14.9338L14.0915 15.0928L17.8964 19.5451L14.4086 23.0433V15.0928H14.5671L14.25 14.9338L14.0915 15.0928L14.25 14.9338Z" fill="#3A7BD5"/>
<path d="M21.067 12.2308H21.3841V7.14246L18.689 9.84562L21.3841 13.0258V12.2308H21.067L21.2256 11.9127L19.4817 9.84562L20.75 8.57354V12.2308H21.067L21.2256 11.9127L21.067 12.2308Z" fill="#3A7BD5"/>
<path d="M21.0671 17.0009L21.2256 17.16L23.7622 14.7748L20.75 11.2766V17.796L21.2256 17.16L21.0671 17.0009H21.3842V13.0257L22.811 14.7748L20.75 16.6829L21.0671 17.0009H21.3842H21.0671Z" fill="#3A7BD5"/>
<path d="M19.0062 9.84556L18.8476 9.68655L13.7744 14.9339L18.372 20.0222L21.3842 17.16V12.0717L19.1647 9.36853L18.8476 9.68655L19.0062 9.84556L18.8476 10.1636L20.7501 12.2307V16.842L18.372 19.2271L14.7256 14.9339L19.3232 10.1636L19.0062 9.84556L18.8476 10.1636L19.0062 9.84556Z" fill="#3A7BD5"/>
<path d="M42.1528 8.09652L42.3114 7.7785L37.2381 0.941095H37.0796L24.0795 -0.48999H23.921L10.9208 0.941095H10.7623L5.68909 7.7785H5.53055L0.774414 14.6159V14.9339L23.7624 41.6475L23.921 41.8065L24.238 41.6475L47.226 14.9339V14.6159L42.3114 7.7785L42.1528 8.09652L41.8357 8.25553L46.5919 14.7749L23.921 41.0115L1.40857 14.7749L6.1647 8.25553L11.0794 1.57713L23.921 0.146048L36.7625 1.57713L41.8357 8.25553L42.1528 8.09652L41.8357 8.25553L42.1528 8.09652Z" fill="#3A7BD5"/>
</g>
</g>
<defs>
<clipPath id="clip0">
<rect width="48" height="43.3548" fill="white"/>
</clipPath>
</defs>
</svg>
